<svg width="306" height="109" viewBox="0 0 306 109" fill="none" xmlns="http://www.w3.org/2000/svg">
<path d="M56.16 1.48V49H43.632V23.44L44.172 14.476L42.12 24.88L35.46 44.752H23.22L16.596 24.88L14.58 14.476L15.084 23.44V49H2.592V1.48H20.376L28.62 31.036L29.376 35.32L30.096 31.036L38.34 1.48H56.16ZM82.0451 1.48H94.3571L113.581 49H100.225L96.9851 40.18H79.4531L76.2131 49H62.7851L82.0451 1.48ZM83.6291 29.272H92.8091L88.2731 16.528H88.1651L83.6291 29.272ZM118.702 1.48H139.15C141.982 1.48 144.49 2.08 146.674 3.28C148.858 4.456 150.574 6.148 151.822 8.356C153.094 10.564 153.73 13.192 153.73 16.24C153.73 19.264 153.214 21.724 152.182 23.62C151.15 25.516 149.914 26.932 148.474 27.868C147.034 28.804 145.714 29.392 144.514 29.632L155.962 49H141.886L131.878 30.604H131.266V49H118.702V1.48ZM131.266 22.036H134.65C136.21 22.036 137.626 21.664 138.898 20.92C140.194 20.176 140.842 18.748 140.842 16.636C140.842 14.548 140.206 13.132 138.934 12.388C137.686 11.644 136.294 11.272 134.758 11.272H131.266V22.036ZM187.712 37.444C189.608 37.444 191.396 37.156 193.076 36.58C194.756 36.004 196.04 35.428 196.928 34.852L202.256 45.472C201.128 46.432 199.184 47.404 196.424 48.388C193.688 49.372 190.448 49.864 186.704 49.864C183.2 49.864 179.9 49.252 176.804 48.028C173.708 46.804 170.96 45.088 168.56 42.88C166.184 40.672 164.324 38.08 162.98 35.104C161.636 32.104 160.964 28.84 160.964 25.312C160.964 21.784 161.636 18.52 162.98 15.52C164.324 12.496 166.184 9.88 168.56 7.672C170.936 5.44 173.672 3.712 176.768 2.488C179.888 1.24 183.2 0.615996 186.704 0.615996C190.448 0.615996 193.688 1.108 196.424 2.092C199.184 3.076 201.128 4.048 202.256 5.008L196.928 15.628C196.04 15.052 194.756 14.476 193.076 13.9C191.396 13.324 189.608 13.036 187.712 13.036C185.36 13.036 183.344 13.384 181.664 14.08C180.008 14.776 178.652 15.712 177.596 16.888C176.54 18.064 175.76 19.372 175.256 20.812C174.776 22.252 174.536 23.716 174.536 25.204C174.536 26.716 174.776 28.204 175.256 29.668C175.76 31.108 176.54 32.416 177.596 33.592C178.652 34.768 180.008 35.704 181.664 36.4C183.344 37.096 185.36 37.444 187.712 37.444ZM222.518 25.204C222.518 27.604 222.998 29.788 223.958 31.756C224.942 33.7 226.31 35.248 228.062 36.4C229.814 37.552 231.854 38.128 234.182 38.128C236.51 38.128 238.55 37.552 240.302 36.4C242.054 35.248 243.41 33.7 244.37 31.756C245.354 29.788 245.846 27.604 245.846 25.204C245.846 22.804 245.354 20.632 244.37 18.688C243.41 16.744 242.054 15.196 240.302 14.044C238.55 12.868 236.51 12.28 234.182 12.28C231.854 12.28 229.814 12.868 228.062 14.044C226.31 15.196 224.942 16.744 223.958 18.688C222.998 20.632 222.518 22.804 222.518 25.204ZM209.45 25.204C209.45 21.748 210.074 18.532 211.322 15.556C212.57 12.556 214.31 9.94 216.542 7.708C218.774 5.476 221.39 3.736 224.39 2.488C227.414 1.24 230.678 0.615996 234.182 0.615996C237.734 0.615996 241.01 1.24 244.01 2.488C247.01 3.736 249.626 5.476 251.858 7.708C254.09 9.94 255.818 12.556 257.042 15.556C258.266 18.532 258.878 21.748 258.878 25.204C258.878 28.684 258.278 31.924 257.078 34.924C255.878 37.9 254.174 40.516 251.966 42.772C249.782 45.004 247.178 46.744 244.154 47.992C241.13 49.24 237.806 49.864 234.182 49.864C230.438 49.864 227.054 49.24 224.03 47.992C221.006 46.744 218.402 45.004 216.218 42.772C214.058 40.516 212.39 37.9 211.214 34.924C210.038 31.924 209.45 28.684 209.45 25.204ZM285.122 0.615996C288.122 0.615996 290.774 0.951996 293.078 1.624C295.406 2.272 297.278 2.968 298.694 3.712C300.11 4.432 300.974 4.912 301.286 5.152L295.31 15.232C294.926 14.92 294.266 14.5 293.33 13.972C292.394 13.444 291.314 12.976 290.09 12.568C288.89 12.136 287.69 11.92 286.49 11.92C284.954 11.92 283.694 12.172 282.71 12.676C281.75 13.156 281.27 13.912 281.27 14.944C281.27 15.664 281.534 16.312 282.062 16.888C282.59 17.464 283.43 18.04 284.582 18.616C285.758 19.192 287.306 19.816 289.226 20.488C291.026 21.112 292.694 21.868 294.23 22.756C295.79 23.644 297.146 24.7 298.298 25.924C299.45 27.148 300.35 28.552 300.998 30.136C301.67 31.72 302.006 33.508 302.006 35.5C302.006 38.044 301.478 40.228 300.422 42.052C299.39 43.852 297.986 45.328 296.21 46.48C294.458 47.632 292.478 48.484 290.27 49.036C288.062 49.588 285.806 49.864 283.502 49.864C280.094 49.864 277.046 49.492 274.358 48.748C271.694 47.98 269.534 47.152 267.878 46.264C266.246 45.376 265.262 44.764 264.926 44.428L271.082 33.952C271.346 34.168 271.91 34.516 272.774 34.996C273.638 35.476 274.67 35.98 275.87 36.508C277.094 37.036 278.378 37.48 279.722 37.84C281.066 38.2 282.338 38.38 283.538 38.38C285.362 38.38 286.718 38.08 287.606 37.48C288.494 36.856 288.938 36.004 288.938 34.924C288.938 34.132 288.662 33.424 288.11 32.8C287.558 32.152 286.658 31.516 285.41 30.892C284.162 30.244 282.494 29.524 280.406 28.732C278.342 27.94 276.398 26.956 274.574 25.78C272.774 24.58 271.298 23.044 270.146 21.172C269.018 19.3 268.454 16.972 268.454 14.188C268.454 11.38 269.234 8.968 270.794 6.952C272.378 4.912 274.442 3.352 276.986 2.272C279.53 1.168 282.242 0.615996 285.122 0.615996Z" fill="#C81010"/>
<path d="M173.87 86H168.02L161.045 66.2H166.94L170.945 79.28L174.965 66.2H180.845L173.87 86ZM183.781 66.2H196.786V70.745H189.001V73.88H196.756V78.275H189.001V81.455H196.786V86H183.781V66.2ZM200.973 66.2H206.193V86H200.973V66.2ZM202.278 65.36L200.763 63.29L205.773 58.91L208.203 61.985L202.278 65.36ZM221.079 81.185C221.869 81.185 222.614 81.065 223.314 80.825C224.014 80.585 224.549 80.345 224.919 80.105L227.139 84.53C226.669 84.93 225.859 85.335 224.709 85.745C223.569 86.155 222.219 86.36 220.659 86.36C219.199 86.36 217.824 86.105 216.534 85.595C215.244 85.085 214.099 84.37 213.099 83.45C212.109 82.53 211.334 81.45 210.774 80.21C210.214 78.96 209.934 77.6 209.934 76.13C209.934 74.66 210.214 73.3 210.774 72.05C211.334 70.79 212.109 69.7 213.099 68.78C214.089 67.85 215.229 67.13 216.519 66.62C217.819 66.1 219.199 65.84 220.659 65.84C222.219 65.84 223.569 66.045 224.709 66.455C225.859 66.865 226.669 67.27 227.139 67.67L224.919 72.095C224.549 71.855 224.014 71.615 223.314 71.375C222.614 71.135 221.869 71.015 221.079 71.015C220.099 71.015 219.259 71.16 218.559 71.45C217.869 71.74 217.304 72.13 216.864 72.62C216.424 73.11 216.099 73.655 215.889 74.255C215.689 74.855 215.589 75.465 215.589 76.085C215.589 76.715 215.689 77.335 215.889 77.945C216.099 78.545 216.424 79.09 216.864 79.58C217.304 80.07 217.869 80.46 218.559 80.75C219.259 81.04 220.099 81.185 221.079 81.185ZM241.731 66.2H246.936V78.32C246.936 79.95 246.621 81.365 245.991 82.565C245.361 83.765 244.441 84.7 243.231 85.37C242.021 86.03 240.551 86.36 238.821 86.36C237.091 86.36 235.616 86.03 234.396 85.37C233.176 84.7 232.246 83.765 231.606 82.565C230.976 81.365 230.661 79.95 230.661 78.32V66.2H235.881V78.035C235.881 78.845 235.991 79.515 236.211 80.045C236.441 80.575 236.776 80.975 237.216 81.245C237.656 81.505 238.191 81.635 238.821 81.635C239.441 81.635 239.966 81.505 240.396 81.245C240.826 80.975 241.156 80.575 241.386 80.045C241.616 79.515 241.731 78.845 241.731 78.035V66.2ZM250.989 66.2H256.209V81.455H263.169V86H250.989V66.2ZM271.278 76.085C271.278 77.085 271.478 77.995 271.878 78.815C272.288 79.625 272.858 80.27 273.588 80.75C274.318 81.23 275.168 81.47 276.138 81.47C277.108 81.47 277.958 81.23 278.688 80.75C279.418 80.27 279.983 79.625 280.383 78.815C280.793 77.995 280.998 77.085 280.998 76.085C280.998 75.085 280.793 74.18 280.383 73.37C279.983 72.56 279.418 71.915 278.688 71.435C277.958 70.945 277.108 70.7 276.138 70.7C275.168 70.7 274.318 70.945 273.588 71.435C272.858 71.915 272.288 72.56 271.878 73.37C271.478 74.18 271.278 75.085 271.278 76.085ZM265.833 76.085C265.833 74.645 266.093 73.305 266.613 72.065C267.133 70.815 267.858 69.725 268.788 68.795C269.718 67.865 270.808 67.14 272.058 66.62C273.318 66.1 274.678 65.84 276.138 65.84C277.618 65.84 278.983 66.1 280.233 66.62C281.483 67.14 282.573 67.865 283.503 68.795C284.433 69.725 285.153 70.815 285.663 72.065C286.173 73.305 286.428 74.645 286.428 76.085C286.428 77.535 286.178 78.885 285.678 80.135C285.178 81.375 284.468 82.465 283.548 83.405C282.638 84.335 281.553 85.06 280.293 85.58C279.033 86.1 277.648 86.36 276.138 86.36C274.578 86.36 273.168 86.1 271.908 85.58C270.648 85.06 269.563 84.335 268.653 83.405C267.753 82.465 267.058 81.375 266.568 80.135C266.078 78.885 265.833 77.535 265.833 76.085ZM297.363 65.84C298.613 65.84 299.718 65.98 300.678 66.26C301.648 66.53 302.428 66.82 303.018 67.13C303.608 67.43 303.968 67.63 304.098 67.73L301.608 71.93C301.448 71.8 301.173 71.625 300.783 71.405C300.393 71.185 299.943 70.99 299.433 70.82C298.933 70.64 298.433 70.55 297.933 70.55C297.293 70.55 296.768 70.655 296.358 70.865C295.958 71.065 295.758 71.38 295.758 71.81C295.758 72.11 295.868 72.38 296.088 72.62C296.308 72.86 296.658 73.1 297.138 73.34C297.628 73.58 298.273 73.84 299.073 74.12C299.823 74.38 300.518 74.695 301.158 75.065C301.808 75.435 302.373 75.875 302.853 76.385C303.333 76.895 303.708 77.48 303.978 78.14C304.258 78.8 304.398 79.545 304.398 80.375C304.398 81.435 304.178 82.345 303.738 83.105C303.308 83.855 302.723 84.47 301.983 84.95C301.253 85.43 300.428 85.785 299.508 86.015C298.588 86.245 297.648 86.36 296.688 86.36C295.268 86.36 293.998 86.205 292.878 85.895C291.768 85.575 290.868 85.23 290.178 84.86C289.498 84.49 289.088 84.235 288.948 84.095L291.513 79.73C291.623 79.82 291.858 79.965 292.218 80.165C292.578 80.365 293.008 80.575 293.508 80.795C294.018 81.015 294.553 81.2 295.113 81.35C295.673 81.5 296.203 81.575 296.703 81.575C297.463 81.575 298.028 81.45 298.398 81.2C298.768 80.94 298.953 80.585 298.953 80.135C298.953 79.805 298.838 79.51 298.608 79.25C298.378 78.98 298.003 78.715 297.483 78.455C296.963 78.185 296.268 77.885 295.398 77.555C294.538 77.225 293.728 76.815 292.968 76.325C292.218 75.825 291.603 75.185 291.123 74.405C290.653 73.625 290.418 72.655 290.418 71.495C290.418 70.325 290.743 69.32 291.393 68.48C292.053 67.63 292.913 66.98 293.973 66.53C295.033 66.07 296.163 65.84 297.363 65.84Z" fill="#E0E0E0"/>
</svg>
