<svg width="108" height="108" viewBox="0 0 108 108" fill="none" xmlns="http://www.w3.org/2000/svg">
<g clip-path="url(#clip0_156_35)">
<path d="M54.0176 0C31.4731 0 24.8797 0.0232664 23.5981 0.1296C18.9716 0.514277 16.0927 1.24294 12.9563 2.80487C10.5392 4.00548 8.63292 5.39712 6.75158 7.34793C3.32532 10.9056 1.24878 15.2824 0.497062 20.4852C0.13161 23.0109 0.025276 23.526 0.00368277 36.4273C-0.00460347 40.7278 0.00368277 46.3874 0.00368277 53.9788C0.00368277 76.5112 0.0285822 83.0997 0.136589 84.3792C0.510368 88.8824 1.21637 91.7155 2.71149 94.8146C5.56881 100.747 11.0259 105.2 17.4549 106.862C19.6809 107.435 22.1395 107.751 25.2959 107.9C26.6332 107.958 40.2635 108 53.9022 108C67.5408 108 81.1795 107.983 82.4835 107.917C86.1383 107.745 88.2605 107.46 90.607 106.853C97.0775 105.183 102.435 100.797 105.35 94.7813C106.816 91.757 107.56 88.8159 107.896 84.5479C107.969 83.6174 108 68.781 108 53.9647C108 39.1458 107.967 24.3369 107.894 23.4064C107.553 19.0694 106.81 16.1532 105.296 13.0707C104.055 10.5475 102.676 8.66312 100.674 6.73646C97.1016 3.32335 92.7325 1.24624 87.5262 0.495174C85.0036 0.130417 84.5011 0.0224096 71.5934 0H54.0176Z" fill="url(#paint0_radial_156_35)"/>
<path d="M54.0176 0C31.4731 0 24.8797 0.0232664 23.5981 0.1296C18.9716 0.514277 16.0927 1.24294 12.9563 2.80487C10.5392 4.00548 8.63292 5.39712 6.75158 7.34793C3.32532 10.9056 1.24878 15.2824 0.497062 20.4852C0.13161 23.0109 0.025276 23.526 0.00368277 36.4273C-0.00460347 40.7278 0.00368277 46.3874 0.00368277 53.9788C0.00368277 76.5112 0.0285822 83.0997 0.136589 84.3792C0.510368 88.8824 1.21637 91.7155 2.71149 94.8146C5.56881 100.747 11.0259 105.2 17.4549 106.862C19.6809 107.435 22.1395 107.751 25.2959 107.9C26.6332 107.958 40.2635 108 53.9022 108C67.5408 108 81.1795 107.983 82.4835 107.917C86.1383 107.745 88.2605 107.46 90.607 106.853C97.0775 105.183 102.435 100.797 105.35 94.7813C106.816 91.757 107.56 88.8159 107.896 84.5479C107.969 83.6174 108 68.781 108 53.9647C108 39.1458 107.967 24.3369 107.894 23.4064C107.553 19.0694 106.81 16.1532 105.296 13.0707C104.055 10.5475 102.676 8.66312 100.674 6.73646C97.1016 3.32335 92.7325 1.24624 87.5262 0.495174C85.0036 0.130417 84.5011 0.0224096 71.5934 0H54.0176Z" fill="url(#paint1_radial_156_35)"/>
<path d="M54.0176 0C31.4731 0 24.8797 0.0232664 23.5981 0.1296C18.9716 0.514277 16.0927 1.24294 12.9563 2.80487C10.5392 4.00548 8.63292 5.39712 6.75158 7.34793C3.32532 10.9056 1.24878 15.2824 0.497062 20.4852C0.13161 23.0109 0.025276 23.526 0.00368277 36.4273C-0.00460347 40.7278 0.00368277 46.3874 0.00368277 53.9788C0.00368277 76.5112 0.0285822 83.0997 0.136589 84.3792C0.510368 88.8824 1.21637 91.7155 2.71149 94.8146C5.56881 100.747 11.0259 105.2 17.4549 106.862C19.6809 107.435 22.1395 107.751 25.2959 107.9C26.6332 107.958 40.2635 108 53.9022 108C67.5408 108 81.1795 107.983 82.4835 107.917C86.1383 107.745 88.2605 107.46 90.607 106.853C97.0775 105.183 102.435 100.797 105.35 94.7813C106.816 91.757 107.56 88.8159 107.896 84.5479C107.969 83.6174 108 68.781 108 53.9647C108 39.1458 107.967 24.3369 107.894 23.4064C107.553 19.0694 106.81 16.1532 105.296 13.0707C104.055 10.5475 102.676 8.66312 100.674 6.73646C97.1016 3.32335 92.7325 1.24624 87.5262 0.495174C85.0036 0.130417 84.5011 0.0224096 71.5934 0H54.0176Z" fill="url(#paint2_radial_156_35)"/>
<path d="M54.0176 0C31.4731 0 24.8797 0.0232664 23.5981 0.1296C18.9716 0.514277 16.0927 1.24294 12.9563 2.80487C10.5392 4.00548 8.63292 5.39712 6.75158 7.34793C3.32532 10.9056 1.24878 15.2824 0.497062 20.4852C0.13161 23.0109 0.025276 23.526 0.00368277 36.4273C-0.00460347 40.7278 0.00368277 46.3874 0.00368277 53.9788C0.00368277 76.5112 0.0285822 83.0997 0.136589 84.3792C0.510368 88.8824 1.21637 91.7155 2.71149 94.8146C5.56881 100.747 11.0259 105.2 17.4549 106.862C19.6809 107.435 22.1395 107.751 25.2959 107.9C26.6332 107.958 40.2635 108 53.9022 108C67.5408 108 81.1795 107.983 82.4835 107.917C86.1383 107.745 88.2605 107.46 90.607 106.853C97.0775 105.183 102.435 100.797 105.35 94.7813C106.816 91.757 107.56 88.8159 107.896 84.5479C107.969 83.6174 108 68.781 108 53.9647C108 39.1458 107.967 24.3369 107.894 23.4064C107.553 19.0694 106.81 16.1532 105.296 13.0707C104.055 10.5475 102.676 8.66312 100.674 6.73646C97.1016 3.32335 92.7325 1.24624 87.5262 0.495174C85.0036 0.130417 84.5011 0.0224096 71.5934 0H54.0176Z" fill="url(#paint3_radial_156_35)"/>
<path d="M54.0218 13.8672C43.1164 13.8672 41.7477 13.9148 37.4645 14.1096C33.1896 14.3052 30.2717 14.9815 27.7185 15.9738C25.0775 16.9987 22.8371 18.3696 20.6052 20.6007C18.3716 22.8311 16.9996 25.0697 15.9706 27.7079C14.9751 30.2601 14.2974 33.1767 14.1051 37.4467C13.9135 41.7267 13.8633 43.0952 13.8633 53.9926C13.8633 64.89 13.9118 66.2534 14.1059 70.5334C14.3025 74.8051 14.9793 77.7209 15.9714 80.2722C16.9979 82.9113 18.3699 85.1499 20.6026 87.3802C22.8338 89.6122 25.0741 90.9865 27.7135 92.0114C30.2683 93.0037 33.1872 93.6799 37.4611 93.8756C41.7444 94.0703 43.1122 94.118 54.0168 94.118C64.9231 94.118 66.2876 94.0703 70.5708 93.8755C74.8457 93.6799 77.7669 93.0037 80.3218 92.0114C82.962 90.9865 85.199 89.6122 87.4301 87.3802C89.6637 85.1499 91.0358 82.9113 92.0647 80.2731C93.0518 77.7209 93.7295 74.8043 93.9303 70.5343C94.1226 66.2542 94.1728 64.89 94.1728 53.9926C94.1728 43.0952 94.1226 41.7276 93.9303 37.4475C93.7295 33.1758 93.0518 30.2601 92.0647 27.7088C91.0358 25.0697 89.6637 22.831 87.4301 20.6007C85.1965 18.3687 82.9628 16.9978 80.3193 15.9738C77.7594 14.9815 74.8398 14.3052 70.5649 14.1096C66.2817 13.9148 64.9181 13.8672 54.0093 13.8672H54.0218ZM50.4196 21.0981C51.4887 21.0965 52.6817 21.0981 54.0218 21.0981C64.7433 21.0981 66.014 21.1366 70.2479 21.3288C74.163 21.5078 76.2879 22.1614 77.7034 22.7106C79.5773 23.4379 80.9133 24.3073 82.3179 25.7117C83.7233 27.1161 84.5933 28.4536 85.3228 30.3261C85.8724 31.7388 86.5275 33.8622 86.7056 37.7744C86.8981 42.0043 86.9399 43.2749 86.9399 53.9834C86.9399 64.6918 86.8981 65.9625 86.7056 70.1924C86.5266 74.1046 85.8724 76.2279 85.3228 77.6406C84.595 79.5132 83.7233 80.8465 82.3179 82.25C80.9125 83.6545 79.5781 84.5238 77.7034 85.2511C76.2896 85.8028 74.163 86.4548 70.2479 86.6338C66.0149 86.826 64.7433 86.8678 54.0218 86.8678C43.2996 86.8678 42.0288 86.826 37.7958 86.6338C33.8807 86.4532 31.7558 85.7995 30.3395 85.2503C28.4656 84.523 27.127 83.6536 25.7216 82.2492C24.3162 80.8448 23.4462 79.5107 22.7167 77.6373C22.167 76.2246 21.512 74.1012 21.3338 70.189C21.1414 65.9591 21.1029 64.6885 21.1029 53.9734C21.1029 43.2582 21.1414 41.9942 21.3338 37.7644C21.5129 33.8521 22.167 31.7288 22.7167 30.3144C23.4445 28.4419 24.3162 27.1044 25.7216 25.7C27.127 24.2956 28.4656 23.4262 30.3395 22.6973C31.7549 22.1455 33.8807 21.4935 37.7958 21.3138C41.5001 21.1466 42.9356 21.0965 50.4196 21.0881L50.4196 21.0981ZM75.4564 27.7606C72.7961 27.7606 70.6377 29.9149 70.6377 32.574C70.6377 35.2323 72.7961 37.389 75.4564 37.389C78.1166 37.389 80.275 35.2323 80.275 32.574C80.275 29.9157 78.1166 27.759 75.4563 27.759L75.4564 27.7606ZM54.0218 33.3865C42.6336 33.3865 33.4005 42.6128 33.4005 53.9926C33.4005 65.3723 42.6336 74.5945 54.0218 74.5945C65.41 74.5945 74.6399 65.3723 74.6399 53.9926C74.6399 42.6128 65.4092 33.3865 54.021 33.3865H54.0218ZM54.0218 40.6175C61.4137 40.6175 67.4069 46.6053 67.4069 53.9926C67.4069 61.379 61.4137 67.3677 54.0218 67.3677C46.6291 67.3677 40.6368 61.379 40.6368 53.9926C40.6368 46.6053 46.6291 40.6175 54.0218 40.6175Z" fill="white"/>
</g>
<defs>
<radialGradient id="paint0_radial_156_35" cx="0" cy="0" r="1" gradientTransform="matrix(-66.4152 18.7306 -13.4947 -47.8489 104.513 50.6209)" gradientUnits="userSpaceOnUse">
<stop stop-color="#FF005F"/>
<stop offset="1" stop-color="#FC01D8"/>
</radialGradient>
<radialGradient id="paint1_radial_156_35" cx="0" cy="0" r="1" gradientUnits="userSpaceOnUse" gradientTransform="translate(28.6867 116.318) rotate(-90) scale(86.2076 91.4645)">
<stop stop-color="#FFCC00"/>
<stop offset="0.1242" stop-color="#FFCC00"/>
<stop offset="0.5672" stop-color="#FE4A05"/>
<stop offset="0.6942" stop-color="#FF0F3F"/>
<stop offset="1" stop-color="#FE0657" stop-opacity="0"/>
</radialGradient>
<radialGradient id="paint2_radial_156_35" cx="0" cy="0" r="1" gradientTransform="matrix(17.8936 -30.8313 40.1388 23.2956 56.7291 106.477)" gradientUnits="userSpaceOnUse">
<stop stop-color="#FFCC00"/>
<stop offset="1" stop-color="#FFCC00" stop-opacity="0"/>
</radialGradient>
<radialGradient id="paint3_radial_156_35" cx="0" cy="0" r="1" gradientTransform="matrix(-65.686 18.4961 -6.29999 -22.3796 14.6533 4.39773)" gradientUnits="userSpaceOnUse">
<stop stop-color="#780CFF"/>
<stop offset="1" stop-color="#820BFF" stop-opacity="0"/>
</radialGradient>
<clipPath id="clip0_156_35">
<rect width="108" height="108" fill="white"/>
</clipPath>
</defs>
</svg>
