<?xml version="1.0" standalone="no"?>
<!DOCTYPE svg PUBLIC "-//W3C//DTD SVG 20010904//EN"
 "http://www.w3.org/TR/2001/REC-SVG-20010904/DTD/svg10.dtd">
<svg version="1.0" xmlns="http://www.w3.org/2000/svg"
 width="192.000000pt" height="192.000000pt" viewBox="0 0 192.000000 192.000000"
 preserveAspectRatio="xMidYMid meet">

<g transform="translate(0.000000,192.000000) scale(0.100000,-0.100000)"
fill="#000000" stroke="none">
<path d="M115 1901 c-48 -22 -79 -54 -100 -103 -13 -33 -15 -138 -15 -840 0
-759 1 -805 19 -843 22 -48 54 -79 103 -100 33 -13 138 -15 840 -15 759 0 805
1 843 19 48 22 79 54 100 103 13 33 15 138 15 838 0 700 -2 805 -15 838 -21
49 -52 81 -100 103 -38 18 -83 19 -845 19 -762 0 -807 -1 -845 -19z m269 -468
c3 -10 48 -182 102 -383 53 -201 99 -368 103 -373 4 -4 55 167 113 380 l105
388 56 3 57 3 0 -491 0 -490 -45 0 -45 0 -2 383 -3 382 -21 -85 c-21 -84 -146
-570 -165 -642 -9 -35 -12 -38 -47 -38 l-37 0 -38 147 c-89 353 -159 618 -163
622 -2 2 -4 -170 -4 -382 l0 -387 -45 0 -45 0 0 490 0 490 59 0 c48 0 61 -3
65 -17z m1163 -11 c65 -34 73 -58 73 -220 0 -127 -2 -142 -23 -173 -12 -19
-44 -45 -73 -60 l-50 -25 23 -18 c13 -9 29 -29 37 -45 13 -25 126 -388 126
-405 0 -4 -25 -6 -56 -4 l-57 3 -48 178 c-51 185 -77 250 -104 261 -9 3 -48 6
-86 6 l-69 0 0 -225 0 -225 -55 0 -55 0 0 491 0 491 188 -4 c170 -3 191 -5
229 -26z"/>
<path d="M1240 1195 l0 -195 100 0 c54 0 110 5 124 11 43 20 56 64 56 192 0
100 -3 118 -20 140 -27 34 -76 47 -177 47 l-83 0 0 -195z"/>
</g>
</svg>
